<svg xmlns="http://www.w3.org/2000/svg" viewBox="0 0 64 64">
  <defs>
    <linearGradient id="planetFill" x1="16" y1="14" x2="46" y2="48" gradientUnits="userSpaceOnUse">
      <stop offset="0" stop-color="#8b5cf6" />
      <stop offset="0.55" stop-color="#6d28d9" />
      <stop offset="1" stop-color="#38bdf8" />
    </linearGradient>
    <linearGradient id="ringFill" x1="7" y1="36" x2="57" y2="20" gradientUnits="userSpaceOnUse">
      <stop offset="0" stop-color="#5b21b6" />
      <stop offset="1" stop-color="#38bdf8" />
    </linearGradient>
  </defs>
  <circle cx="29" cy="30" r="18" fill="url(#planetFill)" />
  <path
    d="M9 37c7-9 20-14 33-13 4 0 9 1 13 3-5 5-12 9-20 11-10 3-20 3-26-1Z"
    fill="url(#ringFill)"
    opacity="0.95"
  />
  <path
    d="M21 16c2-3 6-5 10-5 5 0 10 2 13 6-2-1-5-2-8-2-7 0-13 4-15 10-1-4-1-7 0-9Z"
    fill="#b794ff"
    opacity="0.85"
  />
  <path
    d="M40 11l11 2-8 8"
    fill="none"
    stroke="#38bdf8"
    stroke-linecap="round"
    stroke-linejoin="round"
    stroke-width="4"
  />
  <path
    d="M35 26 49 12"
    fill="none"
    stroke="#38bdf8"
    stroke-linecap="round"
    stroke-width="4"
  />
  <circle cx="49" cy="27" r="2.2" fill="#38bdf8" />
  <circle cx="54" cy="23" r="1.6" fill="#7dd3fc" />
</svg>
